# xmcd CD database file
#
# Track frame offsets:
#	225
#	20470
#	35908
#	53434
#	79049
#	100249
#	118625
#	136126
#	151251
#	172601
#	197812
#	219632
#	267342
#	301700
#
# Disc length: 4450 seconds
#
# Revision: 0
# Processed by: cddbd v1.5.2PL0 Copyright (c) Steve Scherf et al.
# Submitted via: CDex 1.51
#
DISCID=af115f0e
DTITLE=Little Willie Littlefield and The Jivin' Jewels - Old Time Feeling
DYEAR=1900
DGENRE=Blues
TTITLE0=Life of trouble
TTITLE1=Roomin' house boogie
TTITLE2=One scotch, one bourbon, one beer
TTITLE3=New pintop's boogie woogie
TTITLE4=Cheerful baby
TTITLE5=Bad bad whiskey
TTITLE6=I can't help it(if i still in love with you)
TTITLE7=Blue and lonesome
TTITLE8=Driftin' blues
TTITLE9=Jammin' on 'soft winds'
TTITLE10=Happy payday
TTITLE11=The rising sea (live)
TTITLE12=Driftin' blues (live)
TTITLE13=I´m gonna tell my mama (live)
EXTD=
EXTT0=
EXTT1=
EXTT2=
EXTT3=
EXTT4=
EXTT5=
EXTT6=
EXTT7=
EXTT8=
EXTT9=
EXTT10=
EXTT11=
EXTT12=
EXTT13=
PLAYORDER=
